<svg width="28" height="28" viewBox="0 0 28 28" fill="none" xmlns="http://www.w3.org/2000/svg">
<path d="M25.1998 7.05499C24.3668 7.42039 23.4792 7.66259 22.5538 7.78019C23.5058 7.21179 24.2324 6.31859 24.574 5.24199C23.6864 5.77119 22.7064 6.14499 21.662 6.35359C20.8192 5.45619 19.618 4.90039 18.3076 4.90039C15.7652 4.90039 13.7184 6.96399 13.7184 9.49379C13.7184 9.85779 13.7492 10.2078 13.8248 10.541C10.007 10.3548 6.6288 8.52499 4.3594 5.73759C2.73652 8.66163 4.5498 11.059 5.7706 11.8752C5.0328 11.8612 4.309 11.647 3.6958 11.3096C3.6958 13.5891 5.2876 15.4452 7.375 15.8722C6.9186 16.0237 5.92152 16.106 5.3016 15.945C5.8966 17.7636 7.585 19.1006 9.5926 19.144C8.0302 20.3662 5.72776 21.3624 2.7998 21.0396C4.834 22.3514 7.2448 23.1004 9.8446 23.1004C18.295 23.1004 22.915 16.1004 22.915 10.0328C22.915 9.82979 22.908 9.63379 22.8982 9.43919C23.8096 8.79239 24.5754 7.98459 25.1998 7.05499Z" fill="#AEB1BF"/>
</svg>
