<svg width="28" height="28" viewBox="0 0 28 28" fill="none" xmlns="http://www.w3.org/2000/svg">
<path d="M13.9998 2.80981C7.81432 2.80981 2.7998 7.45782 2.7998 13.1914C2.7998 16.4576 4.42716 19.3707 6.97096 21.2736L7.01632 24.934C7.01856 25.1317 7.23248 25.2546 7.40468 25.1566L10.9024 23.1703C11.8861 23.4321 12.9254 23.5727 14.0001 23.5727C20.1856 23.5727 25.2001 18.9247 25.2001 13.1911C25.2001 7.45754 20.1853 2.80981 13.9998 2.80981ZM14.8502 16.5377L12.4562 14.0459C12.3159 13.8998 12.0955 13.8651 11.9172 13.9611L7.71632 16.2232C7.55644 16.3092 7.39936 16.1045 7.52396 15.9723L12.4878 10.7103C12.6303 10.5594 12.8703 10.5594 13.0125 10.7106L15.4057 13.2502C15.5462 13.3997 15.7694 13.4353 15.9497 13.337L20.0778 11.0894C20.2376 11.0026 20.3956 11.2076 20.2707 11.34L15.3726 16.5351C15.2312 16.6849 14.9932 16.6861 14.8502 16.5377Z" fill="#AEB1BF"/>
</svg>
