<svg width="28" height="28" viewBox="0 0 28 28" fill="none" xmlns="http://www.w3.org/2000/svg">
<path d="M12.2798 12.8972C12.6676 12.2935 12.889 11.5736 12.8762 10.8016C12.842 8.73609 11.1228 7.09473 9.05696 7.09473H3.28896C3.01876 7.09473 2.7998 7.31369 2.7998 7.58389V20.2682C2.7998 20.5384 3.01876 20.7573 3.28896 20.7573H9.73204C12.1232 20.7573 14.1042 18.8404 14.1138 16.4492C14.1199 14.9837 13.3928 13.6845 12.2798 12.8972ZM5.33016 9.62509H9.10624C9.79 9.62509 10.3464 10.1814 10.3464 10.8652C10.3464 11.549 9.79 12.1053 9.10624 12.1053H5.33016V9.62509ZM9.78804 18.227H5.33016V14.6357H9.78804C10.7781 14.6357 11.5837 15.4415 11.5837 16.4313C11.5834 17.4214 10.7781 18.227 9.78804 18.227Z" fill="#AEB1BF"/>
<path d="M25.1998 15.5495C25.1998 12.5961 22.8718 10.1931 20.0105 10.1931C17.1489 10.1931 14.8213 12.5961 14.8213 15.5495C14.8213 18.5032 17.1492 20.9059 20.0105 20.9059C21.7465 20.9059 23.3599 20.0161 24.3262 18.5251C24.4466 18.3392 24.556 18.1448 24.6532 17.9446C24.7235 17.7993 24.6168 17.6302 24.4552 17.6299L21.9044 17.6235C21.8482 17.6235 21.7944 17.6464 21.7541 17.6856C21.2722 18.1541 20.682 18.3756 20.0108 18.3756C18.743 18.3756 17.6804 17.4275 17.4158 16.1636H24.6921C24.9724 16.1636 25.1998 15.9362 25.1998 15.6556V15.5495ZM20.0105 12.7235C20.9387 12.7235 21.7572 13.2325 22.2329 14.0011H17.7879C18.2636 13.2325 19.082 12.7235 20.0105 12.7235Z" fill="#AEB1BF"/>
<path d="M22.1669 9.56485H17.5642C17.3495 9.56485 17.1753 9.39069 17.1753 9.17593V8.02149C17.1753 7.80673 17.3495 7.63257 17.5642 7.63257H22.1669C22.3816 7.63257 22.5555 7.80673 22.5555 8.02149V9.17593C22.5555 9.39097 22.3816 9.56485 22.1669 9.56485Z" fill="#AEB1BF"/>
</svg>
